<?xml version="1.0" encoding="UTF-8" standalone="no"?>
<!DOCTYPE svg PUBLIC "-//W3C//DTD SVG 1.1//EN" "http://www.w3.org/Graphics/SVG/1.1/DTD/svg11.dtd">
<svg width="100%" height="100%" viewBox="0 0 651 236" version="1.1" xmlns="http://www.w3.org/2000/svg" xmlns:xlink="http://www.w3.org/1999/xlink" xml:space="preserve" xmlns:serif="http://www.serif.com/" style="fill-rule:evenodd;clip-rule:evenodd;stroke-linejoin:round;stroke-miterlimit:2;">
    <rect id="Artboard1" x="0" y="0" width="650.013" height="235.589" style="fill:none;"/>
    <g id="Artboard11" serif:id="Artboard1">
        <g transform="matrix(1,0,0,1,-1.96888,-208.168)">
            <path d="M216.2,310.8L159.2,310.8C155.9,310.8 153.5,314.1 154.6,317.2L168.3,352.7C168.9,354.3 167.7,356 166,355.9L148.5,354.8C147.7,354.7 146.9,355.1 146.5,355.8L132.9,375.1C132.2,376.2 130.7,376.6 129.6,375.8L109.4,362.1C108.6,361.6 107.5,361.6 106.8,362.1L78.8,381C77,382.2 74.6,380.5 75.2,378.4L83,350.6C83.3,349.4 82.8,348.3 81.6,347.8L66.8,341.8C65.3,341.2 64.9,339.4 65.9,338.2L78.9,322C79.5,321.2 79.6,320.1 79,319.2L68,303.3C67,301.8 67.9,299.8 69.8,299.7L86.9,298.4C88.1,298.3 89.1,297.2 89.1,295.9L87.7,272C87.6,270.3 89.3,269.1 91,269.7L112.2,278.5C113.1,278.9 114.2,278.7 114.8,277.9L129.4,261.6C130.6,260.3 132.7,260.7 133.4,262.2L142.2,284.8C143.4,287.6 146.9,288.6 149.3,286.7L183.6,261.2C187.5,258.3 185,252.1 180.2,252.8L157.6,255.8C156.5,256 155.5,255.3 155.1,254.3L143.2,223.8C141.9,220.6 137.8,219.8 135.4,222.4L109.6,250.4C108.9,251.1 107.9,251.3 107,250.9L73,236.6C70,235.4 66.6,237.5 66.5,240.8L65.3,275.9C65.2,277.1 64.3,278.1 63.1,278.1L32.1,280.1C28.5,280.3 26.5,284.4 28.5,287.4L49.1,317.8C49.7,318.7 49.6,319.8 48.9,320.7L28,344.7C25.9,347.1 26.8,350.8 29.7,352.1L53.7,362.5C54.8,363 55.3,364.1 55,365.2L39.6,425.2C38.5,429.5 43.3,432.7 46.9,430.2L104.6,388.8C105.4,388.3 106.5,388.2 107.3,388.8L133.6,407.3C135.8,408.9 138.7,408.2 140.2,406.1L156.6,380.9C157.1,380.1 158,379.7 158.8,379.9L198.1,384.6C201.3,385.1 204.5,382.4 203.3,379.5L186.9,337.2C186.4,336 186.9,334.8 188.3,334.1L218.2,320C222.8,317.6 221.2,310.8 216.2,310.8Z" style="fill:rgb(128,57,233);fill-rule:nonzero;"/>
        </g>
        <g transform="matrix(1,0,0,1,-1.96888,-208.168)">
            <path d="M625.1,310.8L580.8,310.8C579.9,310.8 579.2,311.5 579.2,312.4L579.2,332C579.2,332.9 579.9,333.6 580.8,333.6L599.7,333.6C600.6,333.6 601.3,334.3 601.3,335.2C601.1,345.3 599.1,363.4 580.7,363.4C565.7,363.4 559.8,345.3 559.8,324.2C559.8,299.1 566,283.6 579.9,283.6C590,283.6 593.3,292.1 594.2,295.3C594.4,296 595.1,296.5 595.8,296.5L618.8,296.5C619.7,296.5 620.5,295.7 620.4,294.8C619.5,282.2 608.7,260.2 580.3,260.2C560.4,260.2 541.8,272.3 535.9,302.2L535.9,263.7C535.9,263.2 535.5,262.9 535.1,262.9L510.7,262.9C510.2,262.9 509.9,263.3 509.9,263.7L509.9,332.4C509.9,333.3 508.7,333.5 508.3,332.7L476.3,263.3C476.1,263 475.9,262.8 475.6,262.8L454,262.8C453.5,262.8 453.2,263.2 453.2,263.6L453.2,302.1C445.2,277.7 423.5,260.1 395.3,260.1C363.8,260.1 340.5,281.9 335.1,310.8L291,310.8C290.5,310.8 290.2,311.2 290.2,311.6L290.2,332.8C290.2,333.3 290.6,333.6 291,333.6L311.6,333.6C312.1,333.6 312.4,334 312.4,334.4C312.3,344.2 310.6,363.4 291.8,363.4C276.8,363.4 270.9,345.3 270.9,324.2C270.9,299.1 277.1,283.6 291,283.6C301.7,283.6 304.8,293.3 305.5,295.9C305.6,296.3 305.9,296.5 306.3,296.5L331,296.5C331.5,296.5 331.9,296.1 331.8,295.6C331.3,283.2 320.7,260.2 291.6,260.2C267.5,260.2 245.2,278 245.2,324C245.2,355.6 257.6,386.9 292,386.9C317.4,386.9 333.7,367.2 337.3,343.5C345,368.7 366.9,386.9 395.7,386.9C423.5,386.9 445.6,369.3 453.6,344.7L453.6,383.6C453.6,384.1 454,384.4 454.4,384.4L478.8,384.4C479.3,384.4 479.6,384 479.6,383.6L479.6,316C479.6,315.1 480.8,314.9 481.2,315.7L513.2,384C513.4,384.3 513.6,384.5 513.9,384.5L535.5,384.5C536,384.5 536.3,384.1 536.3,383.7L536.3,345.1C541,368.3 554.4,387.1 581,387.1C610,387.1 627.1,361.6 627.1,333.7L627.1,312.8C626.7,311.5 626,310.8 625.1,310.8ZM395.5,361.6C375,361.6 360.8,345.9 360.8,323.6C360.8,301.3 375,285.6 395.5,285.6C415.9,285.6 430.2,301.3 430.2,323.6C430.2,345.9 415.9,361.6 395.5,361.6Z" style="fill:rgb(62,0,117);fill-rule:nonzero;"/>
        </g>
    </g>
</svg>
